<svg xmlns="http://www.w3.org/2000/svg" version="1.1" xmlns:xlink="http://www.w3.org/1999/xlink" width="512" height="512" x="0" y="0" viewBox="0 0 512 512" style="enable-background:new 0 0 512 512" xml:space="preserve" class=""><g><path d="M317 90c-8.024 0-26.55 31.644-29.42 90h58.839C343.55 121.644 325.024 90 317 90zM213.516 180h44.061c1.364-29.685 6.656-58.336 15.941-80.292-31.798 14.579-54.813 44.5-60.002 80.292zM317 300c8.024 0 26.55-31.644 29.42-90h-58.84c2.87 58.356 21.396 90 29.42 90zM360.482 99.708c9.285 21.956 14.577 50.607 15.941 80.292h44.061c-5.189-35.792-28.204-65.713-60.002-80.292z" fill="#20766d" opacity="1" data-original="#000000" class=""></path><path d="M317 0C209.48 0 122 87.48 122 195s87.48 195 195 195 195-87.48 195-195S424.52 0 317 0zm0 330c-74.443 0-135-60.557-135-135S242.557 60 317 60s135 60.557 135 135-60.557 135-135 135z" fill="#20766d" opacity="1" data-original="#000000" class=""></path><path d="M213.516 210c5.189 35.792 28.204 65.713 60.002 80.292-9.285-21.956-14.577-50.607-15.941-80.292zM360.482 290.292c31.798-14.579 54.813-44.5 60.002-80.292h-44.061c-1.364 29.685-6.656 58.336-15.941 80.292zM13.151 498.861c17.538 17.509 46.113 17.534 63.633-.015l116.258-116.255a226.726 226.726 0 0 1-63.633-63.633L13.151 435.213c-17.535 17.535-17.535 46.07 0 63.648z" fill="#20766d" opacity="1" data-original="#000000" class=""></path></g></svg>