<svg xmlns="http://www.w3.org/2000/svg" version="1.1" xmlns:xlink="http://www.w3.org/1999/xlink" width="512" height="512" x="0" y="0" viewBox="0 0 483.85 483.85" style="enable-background:new 0 0 512 512" xml:space="preserve" class=""><g><path d="m471.325 211.856-56.9-56.9c-23.4-23.4-9.1-48.1 16.4-49.6 42-2.6 65.6-47.4 31.3-84.7-37.3-34.2-81.9-10.7-84.5 31.2-1.6 25.5-26.5 39.9-49.8 16.6l-55.7-55.7c-16.7-16.7-43.8-16.7-60.5 0l-56.4 56.4c-23.4 23.4-48.2 8.9-49.8-16.6-2.6-42-47.6-65.9-84.9-31.6-34.4 37.4-10.5 82.4 31.5 85 25.5 1.6 40 26.5 16.7 49.9l-56.2 56.1c-16.7 16.7-16.7 43.8 0 60.5l55.7 55.7c23.4 23.3 9.5 47.6-16 49.2-42 2.6-65.5 47.3-31.2 84.6 37.3 34.3 81.8 10.9 84.4-31.1 1.6-25.5 26-39.5 49.4-16.2l56.2 56.2c17 17 44.8 17 61.8.1l39.4-39.4 16.9-16.9c22.1-23.1 7.8-47.4-17.4-49-42-2.6-65.8-47.6-31.5-84.9 37.3-34.3 82.3-10.4 84.9 31.6 1.6 25.2 25.8 39.4 48.9 17.3l15.3-15.3 41.2-41.2.2-.2.6-.6c16.7-16.7 16.7-43.8 0-60.5z" fill="#20766d" opacity="1" data-original="#000000" class=""></path></g></svg>